# xmcd CD database file
#
# Track frame offsets:
#	150
#	12560
#	35627
#	49425
#	68690
#	83642
#	102430
#	119660
#	143530
#	164057
#
# Disc length: 2680 seconds
#
# Revision: 1
# Processed by: cddbd v1.5.2PL0 Copyright (c) Steve Scherf et al.
# Submitted via: CDex 1.51
#
DISCID=8e0a760a
DTITLE=Roy Buchanan - Hot Wires
DYEAR=1900
DGENRE=Blues
TTITLE0=High Wire
TTITLE1=That Did It
TTITLE2=Goose Grease
TTITLE3=Sunset Over Broadway
TTITLE4=Ain't No Business
TTITLE5=Flash Chordin'
TTITLE6=25 Miles
TTITLE7=These Arms Of Mine
TTITLE8=Country Boogie
TTITLE9=The Blues Lover
EXTD=
EXTT0=
EXTT1=
EXTT2=
EXTT3=
EXTT4=
EXTT5=
EXTT6=
EXTT7=
EXTT8=
EXTT9=
PLAYORDER=
